<?xml version="1.0" standalone="no"?>
 <!DOCTYPE svg PUBLIC "-//W3C//DTD SVG 1.1//EN" 
 "http://www.w3.org/Graphics/SVG/1.1/DTD/svg11.dtd"> 
<svg
  xmlns:svg="http://www.w3.org/2000/svg"
  xmlns="http://www.w3.org/2000/svg"
  xmlns:xlink="http://www.w3.org/1999/xlink"
  version="1.1"
  width="297.0022mm" height="210.0072mm" viewBox="0.0000 0.0000 297.0022 210.0072">
<title>SVG Image created as caretaker-B_Silkscreen.svg date 2025/03/31 19:25:45 </title>
  <desc>Image generated by PCBNEW </desc>
<g style="fill:#000000; fill-opacity:1.0000;stroke:#000000; stroke-opacity:1.0000;
stroke-linecap:round; stroke-linejoin:round;"
 transform="translate(0 0) scale(1 1)">
<path style="fill:none; 
stroke:#000000; stroke-width:0.1000; stroke-opacity:1; 
stroke-linecap:round; stroke-linejoin:round;fill:none"
d="M 263.8122,43.6880
234.9912,43.6880
234.9912,85.7330
263.8122,85.7330
Z" /> 
</g>
<g style="fill:none; 
stroke:#000000; stroke-width:0.2000; stroke-opacity:1; 
stroke-linecap:round; stroke-linejoin:round;">
<text x="249.7522" y="78.0000"
textLength="2.8762" font-size="1.3333" lengthAdjust="spacingAndGlyphs"
text-anchor="start" opacity="0" stroke-opacity="0">IN2</text>
<g class="stroked-text"><desc>IN2</desc>
<path d="M250.1219 77.8672
L250.1219 76.8672
" />
<path d="M250.5981 77.8672
L250.5981 76.8672
" />
<path d="M250.5981 76.8672
L251.1695 77.8672
" />
<path d="M251.1695 77.8672
L251.1695 76.8672
" />
<path d="M251.5981 76.9625
L251.6457 76.9148
" />
<path d="M251.6457 76.9148
L251.7409 76.8672
" />
<path d="M251.7409 76.8672
L251.9790 76.8672
" />
<path d="M251.9790 76.8672
L252.0743 76.9148
" />
<path d="M252.0743 76.9148
L252.1219 76.9625
" />
<path d="M252.1219 76.9625
L252.1695 77.0577
" />
<path d="M252.1695 77.0577
L252.1695 77.1529
" />
<path d="M252.1695 77.1529
L252.1219 77.2958
" />
<path d="M252.1219 77.2958
L251.5504 77.8672
" />
<path d="M251.5504 77.8672
L252.1695 77.8672
" />
</g><text x="260.7522" y="78.0000"
textLength="2.1143" font-size="1.3333" lengthAdjust="spacingAndGlyphs"
text-anchor="start" opacity="0" stroke-opacity="0">5v</text>
<g class="stroked-text"><desc>5v</desc>
<path d="M261.5981 76.8672
L261.1219 76.8672
" />
<path d="M261.1219 76.8672
L261.0743 77.3434
" />
<path d="M261.0743 77.3434
L261.1219 77.2958
" />
<path d="M261.1219 77.2958
L261.2171 77.2482
" />
<path d="M261.2171 77.2482
L261.4552 77.2482
" />
<path d="M261.4552 77.2482
L261.5504 77.2958
" />
<path d="M261.5504 77.2958
L261.5981 77.3434
" />
<path d="M261.5981 77.3434
L261.6457 77.4386
" />
<path d="M261.6457 77.4386
L261.6457 77.6767
" />
<path d="M261.6457 77.6767
L261.5981 77.7720
" />
<path d="M261.5981 77.7720
L261.5504 77.8196
" />
<path d="M261.5504 77.8196
L261.4552 77.8672
" />
<path d="M261.4552 77.8672
L261.2171 77.8672
" />
<path d="M261.2171 77.8672
L261.1219 77.8196
" />
<path d="M261.1219 77.8196
L261.0743 77.7720
" />
<path d="M261.9790 77.2006
L262.2171 77.8672
" />
<path d="M262.2171 77.8672
L262.4552 77.2006
" />
</g><text x="253.2522" y="78.0000"
textLength="2.8762" font-size="1.3333" lengthAdjust="spacingAndGlyphs"
text-anchor="start" opacity="0" stroke-opacity="0">IN1</text>
<g class="stroked-text"><desc>IN1</desc>
<path d="M253.6219 77.8672
L253.6219 76.8672
" />
<path d="M254.0981 77.8672
L254.0981 76.8672
" />
<path d="M254.0981 76.8672
L254.6695 77.8672
" />
<path d="M254.6695 77.8672
L254.6695 76.8672
" />
<path d="M255.6695 77.8672
L255.0981 77.8672
" />
<path d="M255.3838 77.8672
L255.3838 76.8672
" />
<path d="M255.3838 76.8672
L255.2885 77.0101
" />
<path d="M255.2885 77.0101
L255.1933 77.1053
" />
<path d="M255.1933 77.1053
L255.0981 77.1529
" />
</g><text x="253.7403" y="70.7500"
textLength="2.1143" font-size="1.3333" lengthAdjust="spacingAndGlyphs"
text-anchor="start" opacity="0" stroke-opacity="0">TX</text>
<g class="stroked-text"><desc>TX</desc>
<path d="M253.9671 69.6172
L254.5385 69.6172
" />
<path d="M254.2528 70.6172
L254.2528 69.6172
" />
<path d="M254.7766 69.6172
L255.4433 70.6172
" />
<path d="M255.4433 69.6172
L254.7766 70.6172
" />
</g><text x="256.7522" y="78.0000"
textLength="3.4476" font-size="1.3333" lengthAdjust="spacingAndGlyphs"
text-anchor="start" opacity="0" stroke-opacity="0">GND</text>
<g class="stroked-text"><desc>GND</desc>
<path d="M257.6457 76.9148
L257.5504 76.8672
" />
<path d="M257.5504 76.8672
L257.4076 76.8672
" />
<path d="M257.4076 76.8672
L257.2647 76.9148
" />
<path d="M257.2647 76.9148
L257.1695 77.0101
" />
<path d="M257.1695 77.0101
L257.1219 77.1053
" />
<path d="M257.1219 77.1053
L257.0743 77.2958
" />
<path d="M257.0743 77.2958
L257.0743 77.4386
" />
<path d="M257.0743 77.4386
L257.1219 77.6291
" />
<path d="M257.1219 77.6291
L257.1695 77.7244
" />
<path d="M257.1695 77.7244
L257.2647 77.8196
" />
<path d="M257.2647 77.8196
L257.4076 77.8672
" />
<path d="M257.4076 77.8672
L257.5028 77.8672
" />
<path d="M257.5028 77.8672
L257.6457 77.8196
" />
<path d="M257.6457 77.8196
L257.6933 77.7720
" />
<path d="M257.6933 77.7720
L257.6933 77.4386
" />
<path d="M257.6933 77.4386
L257.5028 77.4386
" />
<path d="M258.1219 77.8672
L258.1219 76.8672
" />
<path d="M258.1219 76.8672
L258.6933 77.8672
" />
<path d="M258.6933 77.8672
L258.6933 76.8672
" />
<path d="M259.1695 77.8672
L259.1695 76.8672
" />
<path d="M259.1695 76.8672
L259.4076 76.8672
" />
<path d="M259.4076 76.8672
L259.5504 76.9148
" />
<path d="M259.5504 76.9148
L259.6457 77.0101
" />
<path d="M259.6457 77.0101
L259.6933 77.1053
" />
<path d="M259.6933 77.1053
L259.7409 77.2958
" />
<path d="M259.7409 77.2958
L259.7409 77.4386
" />
<path d="M259.7409 77.4386
L259.6933 77.6291
" />
<path d="M259.6933 77.6291
L259.6457 77.7244
" />
<path d="M259.6457 77.7244
L259.5504 77.8196
" />
<path d="M259.5504 77.8196
L259.4076 77.8672
" />
<path d="M259.4076 77.8672
L259.1695 77.8672
" />
</g><text x="243.0022" y="74.7500"
textLength="4.8762" font-size="1.3333" lengthAdjust="spacingAndGlyphs"
text-anchor="start" opacity="0" stroke-opacity="0">GPIO2</text>
<g class="stroked-text"><desc>GPIO2</desc>
<path d="M243.8957 73.6648
L243.8004 73.6172
" />
<path d="M243.8004 73.6172
L243.6576 73.6172
" />
<path d="M243.6576 73.6172
L243.5147 73.6648
" />
<path d="M243.5147 73.6648
L243.4195 73.7601
" />
<path d="M243.4195 73.7601
L243.3719 73.8553
" />
<path d="M243.3719 73.8553
L243.3243 74.0458
" />
<path d="M243.3243 74.0458
L243.3243 74.1886
" />
<path d="M243.3243 74.1886
L243.3719 74.3791
" />
<path d="M243.3719 74.3791
L243.4195 74.4744
" />
<path d="M243.4195 74.4744
L243.5147 74.5696
" />
<path d="M243.5147 74.5696
L243.6576 74.6172
" />
<path d="M243.6576 74.6172
L243.7528 74.6172
" />
<path d="M243.7528 74.6172
L243.8957 74.5696
" />
<path d="M243.8957 74.5696
L243.9433 74.5220
" />
<path d="M243.9433 74.5220
L243.9433 74.1886
" />
<path d="M243.9433 74.1886
L243.7528 74.1886
" />
<path d="M244.3719 74.6172
L244.3719 73.6172
" />
<path d="M244.3719 73.6172
L244.7528 73.6172
" />
<path d="M244.7528 73.6172
L244.8481 73.6648
" />
<path d="M244.8481 73.6648
L244.8957 73.7125
" />
<path d="M244.8957 73.7125
L244.9433 73.8077
" />
<path d="M244.9433 73.8077
L244.9433 73.9506
" />
<path d="M244.9433 73.9506
L244.8957 74.0458
" />
<path d="M244.8957 74.0458
L244.8481 74.0934
" />
<path d="M244.8481 74.0934
L244.7528 74.1410
" />
<path d="M244.7528 74.1410
L244.3719 74.1410
" />
<path d="M245.3719 74.6172
L245.3719 73.6172
" />
<path d="M246.0385 73.6172
L246.2290 73.6172
" />
<path d="M246.2290 73.6172
L246.3243 73.6648
" />
<path d="M246.3243 73.6648
L246.4195 73.7601
" />
<path d="M246.4195 73.7601
L246.4671 73.9506
" />
<path d="M246.4671 73.9506
L246.4671 74.2839
" />
<path d="M246.4671 74.2839
L246.4195 74.4744
" />
<path d="M246.4195 74.4744
L246.3243 74.5696
" />
<path d="M246.3243 74.5696
L246.2290 74.6172
" />
<path d="M246.2290 74.6172
L246.0385 74.6172
" />
<path d="M246.0385 74.6172
L245.9433 74.5696
" />
<path d="M245.9433 74.5696
L245.8481 74.4744
" />
<path d="M245.8481 74.4744
L245.8004 74.2839
" />
<path d="M245.8004 74.2839
L245.8004 73.9506
" />
<path d="M245.8004 73.9506
L245.8481 73.7601
" />
<path d="M245.8481 73.7601
L245.9433 73.6648
" />
<path d="M245.9433 73.6648
L246.0385 73.6172
" />
<path d="M246.8481 73.7125
L246.8957 73.6648
" />
<path d="M246.8957 73.6648
L246.9909 73.6172
" />
<path d="M246.9909 73.6172
L247.2290 73.6172
" />
<path d="M247.2290 73.6172
L247.3243 73.6648
" />
<path d="M247.3243 73.6648
L247.3719 73.7125
" />
<path d="M247.3719 73.7125
L247.4195 73.8077
" />
<path d="M247.4195 73.8077
L247.4195 73.9029
" />
<path d="M247.4195 73.9029
L247.3719 74.0458
" />
<path d="M247.3719 74.0458
L246.8004 74.6172
" />
<path d="M246.8004 74.6172
L247.4195 74.6172
" />
</g><text x="246.0022" y="78.0000"
textLength="2.8762" font-size="1.3333" lengthAdjust="spacingAndGlyphs"
text-anchor="start" opacity="0" stroke-opacity="0">IN3</text>
<g class="stroked-text"><desc>IN3</desc>
<path d="M246.3719 77.8672
L246.3719 76.8672
" />
<path d="M246.8481 77.8672
L246.8481 76.8672
" />
<path d="M246.8481 76.8672
L247.4195 77.8672
" />
<path d="M247.4195 77.8672
L247.4195 76.8672
" />
<path d="M247.8004 76.8672
L248.4195 76.8672
" />
<path d="M248.4195 76.8672
L248.0862 77.2482
" />
<path d="M248.0862 77.2482
L248.2290 77.2482
" />
<path d="M248.2290 77.2482
L248.3243 77.2958
" />
<path d="M248.3243 77.2958
L248.3719 77.3434
" />
<path d="M248.3719 77.3434
L248.4195 77.4386
" />
<path d="M248.4195 77.4386
L248.4195 77.6767
" />
<path d="M248.4195 77.6767
L248.3719 77.7720
" />
<path d="M248.3719 77.7720
L248.3243 77.8196
" />
<path d="M248.3243 77.8196
L248.2290 77.8672
" />
<path d="M248.2290 77.8672
L247.9433 77.8672
" />
<path d="M247.9433 77.8672
L247.8481 77.8196
" />
<path d="M247.8481 77.8196
L247.8004 77.7720
" />
</g><text x="253.5022" y="74.7500"
textLength="2.3524" font-size="1.3333" lengthAdjust="spacingAndGlyphs"
text-anchor="start" opacity="0" stroke-opacity="0">RX</text>
<g class="stroked-text"><desc>RX</desc>
<path d="M254.4433 74.6172
L254.1100 74.1410
" />
<path d="M253.8719 74.6172
L253.8719 73.6172
" />
<path d="M253.8719 73.6172
L254.2528 73.6172
" />
<path d="M254.2528 73.6172
L254.3481 73.6648
" />
<path d="M254.3481 73.6648
L254.3957 73.7125
" />
<path d="M254.3957 73.7125
L254.4433 73.8077
" />
<path d="M254.4433 73.8077
L254.4433 73.9506
" />
<path d="M254.4433 73.9506
L254.3957 74.0458
" />
<path d="M254.3957 74.0458
L254.3481 74.0934
" />
<path d="M254.3481 74.0934
L254.2528 74.1410
" />
<path d="M254.2528 74.1410
L253.8719 74.1410
" />
<path d="M254.7766 73.6172
L255.4433 74.6172
" />
<path d="M255.4433 73.6172
L254.7766 74.6172
" />
</g><text x="242.5022" y="78.0000"
textLength="2.8762" font-size="1.3333" lengthAdjust="spacingAndGlyphs"
text-anchor="start" opacity="0" stroke-opacity="0">IN4</text>
<g class="stroked-text"><desc>IN4</desc>
<path d="M242.8719 77.8672
L242.8719 76.8672
" />
<path d="M243.3481 77.8672
L243.3481 76.8672
" />
<path d="M243.3481 76.8672
L243.9195 77.8672
" />
<path d="M243.9195 77.8672
L243.9195 76.8672
" />
<path d="M244.8243 77.2006
L244.8243 77.8672
" />
<path d="M244.5862 76.8196
L244.3481 77.5339
" />
<path d="M244.3481 77.5339
L244.9671 77.5339
" />
</g><text x="243.0022" y="70.7500"
textLength="3.1143" font-size="1.3333" lengthAdjust="spacingAndGlyphs"
text-anchor="start" opacity="0" stroke-opacity="0">LED</text>
<g class="stroked-text"><desc>LED</desc>
<path d="M243.8481 70.6172
L243.3719 70.6172
" />
<path d="M243.3719 70.6172
L243.3719 69.6172
" />
<path d="M244.1814 70.0934
L244.5147 70.0934
" />
<path d="M244.6576 70.6172
L244.1814 70.6172
" />
<path d="M244.1814 70.6172
L244.1814 69.6172
" />
<path d="M244.1814 69.6172
L244.6576 69.6172
" />
<path d="M245.0862 70.6172
L245.0862 69.6172
" />
<path d="M245.0862 69.6172
L245.3243 69.6172
" />
<path d="M245.3243 69.6172
L245.4671 69.6648
" />
<path d="M245.4671 69.6648
L245.5623 69.7601
" />
<path d="M245.5623 69.7601
L245.6100 69.8553
" />
<path d="M245.6100 69.8553
L245.6576 70.0458
" />
<path d="M245.6576 70.0458
L245.6576 70.1886
" />
<path d="M245.6576 70.1886
L245.6100 70.3791
" />
<path d="M245.6100 70.3791
L245.5623 70.4744
" />
<path d="M245.5623 70.4744
L245.4671 70.5696
" />
<path d="M245.4671 70.5696
L245.3243 70.6172
" />
<path d="M245.3243 70.6172
L245.0862 70.6172
" />
</g><text x="240.6872" y="59.0550"
textLength="5.8286" font-size="1.3333" lengthAdjust="spacingAndGlyphs"
text-anchor="start" opacity="0" stroke-opacity="0">GPIO15</text>
<g class="stroked-text"><desc>GPIO15</desc>
<path d="M241.5807 57.9698
L241.4854 57.9222
" />
<path d="M241.4854 57.9222
L241.3426 57.9222
" />
<path d="M241.3426 57.9222
L241.1997 57.9698
" />
<path d="M241.1997 57.9698
L241.1045 58.0651
" />
<path d="M241.1045 58.0651
L241.0569 58.1603
" />
<path d="M241.0569 58.1603
L241.0093 58.3508
" />
<path d="M241.0093 58.3508
L241.0093 58.4936
" />
<path d="M241.0093 58.4936
L241.0569 58.6841
" />
<path d="M241.0569 58.6841
L241.1045 58.7794
" />
<path d="M241.1045 58.7794
L241.1997 58.8746
" />
<path d="M241.1997 58.8746
L241.3426 58.9222
" />
<path d="M241.3426 58.9222
L241.4378 58.9222
" />
<path d="M241.4378 58.9222
L241.5807 58.8746
" />
<path d="M241.5807 58.8746
L241.6283 58.8270
" />
<path d="M241.6283 58.8270
L241.6283 58.4936
" />
<path d="M241.6283 58.4936
L241.4378 58.4936
" />
<path d="M242.0569 58.9222
L242.0569 57.9222
" />
<path d="M242.0569 57.9222
L242.4378 57.9222
" />
<path d="M242.4378 57.9222
L242.5331 57.9698
" />
<path d="M242.5331 57.9698
L242.5807 58.0175
" />
<path d="M242.5807 58.0175
L242.6283 58.1127
" />
<path d="M242.6283 58.1127
L242.6283 58.2556
" />
<path d="M242.6283 58.2556
L242.5807 58.3508
" />
<path d="M242.5807 58.3508
L242.5331 58.3984
" />
<path d="M242.5331 58.3984
L242.4378 58.4460
" />
<path d="M242.4378 58.4460
L242.0569 58.4460
" />
<path d="M243.0569 58.9222
L243.0569 57.9222
" />
<path d="M243.7235 57.9222
L243.9140 57.9222
" />
<path d="M243.9140 57.9222
L244.0093 57.9698
" />
<path d="M244.0093 57.9698
L244.1045 58.0651
" />
<path d="M244.1045 58.0651
L244.1521 58.2556
" />
<path d="M244.1521 58.2556
L244.1521 58.5889
" />
<path d="M244.1521 58.5889
L244.1045 58.7794
" />
<path d="M244.1045 58.7794
L244.0093 58.8746
" />
<path d="M244.0093 58.8746
L243.9140 58.9222
" />
<path d="M243.9140 58.9222
L243.7235 58.9222
" />
<path d="M243.7235 58.9222
L243.6283 58.8746
" />
<path d="M243.6283 58.8746
L243.5331 58.7794
" />
<path d="M243.5331 58.7794
L243.4854 58.5889
" />
<path d="M243.4854 58.5889
L243.4854 58.2556
" />
<path d="M243.4854 58.2556
L243.5331 58.0651
" />
<path d="M243.5331 58.0651
L243.6283 57.9698
" />
<path d="M243.6283 57.9698
L243.7235 57.9222
" />
<path d="M245.1045 58.9222
L244.5331 58.9222
" />
<path d="M244.8188 58.9222
L244.8188 57.9222
" />
<path d="M244.8188 57.9222
L244.7235 58.0651
" />
<path d="M244.7235 58.0651
L244.6283 58.1603
" />
<path d="M244.6283 58.1603
L244.5331 58.2079
" />
<path d="M246.0093 57.9222
L245.5331 57.9222
" />
<path d="M245.5331 57.9222
L245.4854 58.3984
" />
<path d="M245.4854 58.3984
L245.5331 58.3508
" />
<path d="M245.5331 58.3508
L245.6283 58.3032
" />
<path d="M245.6283 58.3032
L245.8664 58.3032
" />
<path d="M245.8664 58.3032
L245.9616 58.3508
" />
<path d="M245.9616 58.3508
L246.0093 58.3984
" />
<path d="M246.0093 58.3984
L246.0569 58.4936
" />
<path d="M246.0569 58.4936
L246.0569 58.7317
" />
<path d="M246.0569 58.7317
L246.0093 58.8270
" />
<path d="M246.0093 58.8270
L245.9616 58.8746
" />
<path d="M245.9616 58.8746
L245.8664 58.9222
" />
<path d="M245.8664 58.9222
L245.6283 58.9222
" />
<path d="M245.6283 58.9222
L245.5331 58.8746
" />
<path d="M245.5331 58.8746
L245.4854 58.8270
" />
</g><text x="255.2922" y="53.9750"
textLength="4.8762" font-size="1.3333" lengthAdjust="spacingAndGlyphs"
text-anchor="start" opacity="0" stroke-opacity="0">GPIO0</text>
<g class="stroked-text"><desc>GPIO0</desc>
<path d="M256.1857 52.8898
L256.0904 52.8422
" />
<path d="M256.0904 52.8422
L255.9476 52.8422
" />
<path d="M255.9476 52.8422
L255.8047 52.8898
" />
<path d="M255.8047 52.8898
L255.7095 52.9851
" />
<path d="M255.7095 52.9851
L255.6619 53.0803
" />
<path d="M255.6619 53.0803
L255.6143 53.2708
" />
<path d="M255.6143 53.2708
L255.6143 53.4136
" />
<path d="M255.6143 53.4136
L255.6619 53.6041
" />
<path d="M255.6619 53.6041
L255.7095 53.6994
" />
<path d="M255.7095 53.6994
L255.8047 53.7946
" />
<path d="M255.8047 53.7946
L255.9476 53.8422
" />
<path d="M255.9476 53.8422
L256.0428 53.8422
" />
<path d="M256.0428 53.8422
L256.1857 53.7946
" />
<path d="M256.1857 53.7946
L256.2333 53.7470
" />
<path d="M256.2333 53.7470
L256.2333 53.4136
" />
<path d="M256.2333 53.4136
L256.0428 53.4136
" />
<path d="M256.6619 53.8422
L256.6619 52.8422
" />
<path d="M256.6619 52.8422
L257.0428 52.8422
" />
<path d="M257.0428 52.8422
L257.1381 52.8898
" />
<path d="M257.1381 52.8898
L257.1857 52.9375
" />
<path d="M257.1857 52.9375
L257.2333 53.0327
" />
<path d="M257.2333 53.0327
L257.2333 53.1756
" />
<path d="M257.2333 53.1756
L257.1857 53.2708
" />
<path d="M257.1857 53.2708
L257.1381 53.3184
" />
<path d="M257.1381 53.3184
L257.0428 53.3660
" />
<path d="M257.0428 53.3660
L256.6619 53.3660
" />
<path d="M257.6619 53.8422
L257.6619 52.8422
" />
<path d="M258.3285 52.8422
L258.5190 52.8422
" />
<path d="M258.5190 52.8422
L258.6143 52.8898
" />
<path d="M258.6143 52.8898
L258.7095 52.9851
" />
<path d="M258.7095 52.9851
L258.7571 53.1756
" />
<path d="M258.7571 53.1756
L258.7571 53.5089
" />
<path d="M258.7571 53.5089
L258.7095 53.6994
" />
<path d="M258.7095 53.6994
L258.6143 53.7946
" />
<path d="M258.6143 53.7946
L258.5190 53.8422
" />
<path d="M258.5190 53.8422
L258.3285 53.8422
" />
<path d="M258.3285 53.8422
L258.2333 53.7946
" />
<path d="M258.2333 53.7946
L258.1381 53.6994
" />
<path d="M258.1381 53.6994
L258.0904 53.5089
" />
<path d="M258.0904 53.5089
L258.0904 53.1756
" />
<path d="M258.0904 53.1756
L258.1381 52.9851
" />
<path d="M258.1381 52.9851
L258.2333 52.8898
" />
<path d="M258.2333 52.8898
L258.3285 52.8422
" />
<path d="M259.3762 52.8422
L259.4714 52.8422
" />
<path d="M259.4714 52.8422
L259.5666 52.8898
" />
<path d="M259.5666 52.8898
L259.6143 52.9375
" />
<path d="M259.6143 52.9375
L259.6619 53.0327
" />
<path d="M259.6619 53.0327
L259.7095 53.2232
" />
<path d="M259.7095 53.2232
L259.7095 53.4613
" />
<path d="M259.7095 53.4613
L259.6619 53.6517
" />
<path d="M259.6619 53.6517
L259.6143 53.7470
" />
<path d="M259.6143 53.7470
L259.5666 53.7946
" />
<path d="M259.5666 53.7946
L259.4714 53.8422
" />
<path d="M259.4714 53.8422
L259.3762 53.8422
" />
<path d="M259.3762 53.8422
L259.2809 53.7946
" />
<path d="M259.2809 53.7946
L259.2333 53.7470
" />
<path d="M259.2333 53.7470
L259.1857 53.6517
" />
<path d="M259.1857 53.6517
L259.1381 53.4613
" />
<path d="M259.1381 53.4613
L259.1381 53.2232
" />
<path d="M259.1381 53.2232
L259.1857 53.0327
" />
<path d="M259.1857 53.0327
L259.2333 52.9375
" />
<path d="M259.2333 52.9375
L259.2809 52.8898
" />
<path d="M259.2809 52.8898
L259.3762 52.8422
" />
</g><text x="256.5622" y="59.0550"
textLength="3.2571" font-size="1.3333" lengthAdjust="spacingAndGlyphs"
text-anchor="start" opacity="0" stroke-opacity="0">VCC</text>
<g class="stroked-text"><desc>VCC</desc>
<path d="M256.7890 57.9222
L257.1223 58.9222
" />
<path d="M257.1223 58.9222
L257.4557 57.9222
" />
<path d="M258.3604 58.8270
L258.3128 58.8746
" />
<path d="M258.3128 58.8746
L258.1700 58.9222
" />
<path d="M258.1700 58.9222
L258.0747 58.9222
" />
<path d="M258.0747 58.9222
L257.9319 58.8746
" />
<path d="M257.9319 58.8746
L257.8366 58.7794
" />
<path d="M257.8366 58.7794
L257.7890 58.6841
" />
<path d="M257.7890 58.6841
L257.7414 58.4936
" />
<path d="M257.7414 58.4936
L257.7414 58.3508
" />
<path d="M257.7414 58.3508
L257.7890 58.1603
" />
<path d="M257.7890 58.1603
L257.8366 58.0651
" />
<path d="M257.8366 58.0651
L257.9319 57.9698
" />
<path d="M257.9319 57.9698
L258.0747 57.9222
" />
<path d="M258.0747 57.9222
L258.1700 57.9222
" />
<path d="M258.1700 57.9222
L258.3128 57.9698
" />
<path d="M258.3128 57.9698
L258.3604 58.0175
" />
<path d="M259.3604 58.8270
L259.3128 58.8746
" />
<path d="M259.3128 58.8746
L259.1700 58.9222
" />
<path d="M259.1700 58.9222
L259.0747 58.9222
" />
<path d="M259.0747 58.9222
L258.9319 58.8746
" />
<path d="M258.9319 58.8746
L258.8366 58.7794
" />
<path d="M258.8366 58.7794
L258.7890 58.6841
" />
<path d="M258.7890 58.6841
L258.7414 58.4936
" />
<path d="M258.7414 58.4936
L258.7414 58.3508
" />
<path d="M258.7414 58.3508
L258.7890 58.1603
" />
<path d="M258.7890 58.1603
L258.8366 58.0651
" />
<path d="M258.8366 58.0651
L258.9319 57.9698
" />
<path d="M258.9319 57.9698
L259.0747 57.9222
" />
<path d="M259.0747 57.9222
L259.1700 57.9222
" />
<path d="M259.1700 57.9222
L259.3128 57.9698
" />
<path d="M259.3128 57.9698
L259.3604 58.0175
" />
</g><text x="240.6872" y="53.9750"
textLength="5.8286" font-size="1.3333" lengthAdjust="spacingAndGlyphs"
text-anchor="start" opacity="0" stroke-opacity="0">GPIO12</text>
<g class="stroked-text"><desc>GPIO12</desc>
<path d="M241.5807 52.8898
L241.4854 52.8422
" />
<path d="M241.4854 52.8422
L241.3426 52.8422
" />
<path d="M241.3426 52.8422
L241.1997 52.8898
" />
<path d="M241.1997 52.8898
L241.1045 52.9851
" />
<path d="M241.1045 52.9851
L241.0569 53.0803
" />
<path d="M241.0569 53.0803
L241.0093 53.2708
" />
<path d="M241.0093 53.2708
L241.0093 53.4136
" />
<path d="M241.0093 53.4136
L241.0569 53.6041
" />
<path d="M241.0569 53.6041
L241.1045 53.6994
" />
<path d="M241.1045 53.6994
L241.1997 53.7946
" />
<path d="M241.1997 53.7946
L241.3426 53.8422
" />
<path d="M241.3426 53.8422
L241.4378 53.8422
" />
<path d="M241.4378 53.8422
L241.5807 53.7946
" />
<path d="M241.5807 53.7946
L241.6283 53.7470
" />
<path d="M241.6283 53.7470
L241.6283 53.4136
" />
<path d="M241.6283 53.4136
L241.4378 53.4136
" />
<path d="M242.0569 53.8422
L242.0569 52.8422
" />
<path d="M242.0569 52.8422
L242.4378 52.8422
" />
<path d="M242.4378 52.8422
L242.5331 52.8898
" />
<path d="M242.5331 52.8898
L242.5807 52.9375
" />
<path d="M242.5807 52.9375
L242.6283 53.0327
" />
<path d="M242.6283 53.0327
L242.6283 53.1756
" />
<path d="M242.6283 53.1756
L242.5807 53.2708
" />
<path d="M242.5807 53.2708
L242.5331 53.3184
" />
<path d="M242.5331 53.3184
L242.4378 53.3660
" />
<path d="M242.4378 53.3660
L242.0569 53.3660
" />
<path d="M243.0569 53.8422
L243.0569 52.8422
" />
<path d="M243.7235 52.8422
L243.9140 52.8422
" />
<path d="M243.9140 52.8422
L244.0093 52.8898
" />
<path d="M244.0093 52.8898
L244.1045 52.9851
" />
<path d="M244.1045 52.9851
L244.1521 53.1756
" />
<path d="M244.1521 53.1756
L244.1521 53.5089
" />
<path d="M244.1521 53.5089
L244.1045 53.6994
" />
<path d="M244.1045 53.6994
L244.0093 53.7946
" />
<path d="M244.0093 53.7946
L243.9140 53.8422
" />
<path d="M243.9140 53.8422
L243.7235 53.8422
" />
<path d="M243.7235 53.8422
L243.6283 53.7946
" />
<path d="M243.6283 53.7946
L243.5331 53.6994
" />
<path d="M243.5331 53.6994
L243.4854 53.5089
" />
<path d="M243.4854 53.5089
L243.4854 53.1756
" />
<path d="M243.4854 53.1756
L243.5331 52.9851
" />
<path d="M243.5331 52.9851
L243.6283 52.8898
" />
<path d="M243.6283 52.8898
L243.7235 52.8422
" />
<path d="M245.1045 53.8422
L244.5331 53.8422
" />
<path d="M244.8188 53.8422
L244.8188 52.8422
" />
<path d="M244.8188 52.8422
L244.7235 52.9851
" />
<path d="M244.7235 52.9851
L244.6283 53.0803
" />
<path d="M244.6283 53.0803
L244.5331 53.1279
" />
<path d="M245.4854 52.9375
L245.5331 52.8898
" />
<path d="M245.5331 52.8898
L245.6283 52.8422
" />
<path d="M245.6283 52.8422
L245.8664 52.8422
" />
<path d="M245.8664 52.8422
L245.9616 52.8898
" />
<path d="M245.9616 52.8898
L246.0093 52.9375
" />
<path d="M246.0093 52.9375
L246.0569 53.0327
" />
<path d="M246.0569 53.0327
L246.0569 53.1279
" />
<path d="M246.0569 53.1279
L246.0093 53.2708
" />
<path d="M246.0093 53.2708
L245.4378 53.8422
" />
<path d="M245.4378 53.8422
L246.0569 53.8422
" />
</g><text x="240.6872" y="66.6750"
textLength="4.8762" font-size="1.3333" lengthAdjust="spacingAndGlyphs"
text-anchor="start" opacity="0" stroke-opacity="0">GPIO4</text>
<g class="stroked-text"><desc>GPIO4</desc>
<path d="M241.5807 65.5898
L241.4854 65.5422
" />
<path d="M241.4854 65.5422
L241.3426 65.5422
" />
<path d="M241.3426 65.5422
L241.1997 65.5898
" />
<path d="M241.1997 65.5898
L241.1045 65.6851
" />
<path d="M241.1045 65.6851
L241.0569 65.7803
" />
<path d="M241.0569 65.7803
L241.0093 65.9708
" />
<path d="M241.0093 65.9708
L241.0093 66.1136
" />
<path d="M241.0093 66.1136
L241.0569 66.3041
" />
<path d="M241.0569 66.3041
L241.1045 66.3994
" />
<path d="M241.1045 66.3994
L241.1997 66.4946
" />
<path d="M241.1997 66.4946
L241.3426 66.5422
" />
<path d="M241.3426 66.5422
L241.4378 66.5422
" />
<path d="M241.4378 66.5422
L241.5807 66.4946
" />
<path d="M241.5807 66.4946
L241.6283 66.4470
" />
<path d="M241.6283 66.4470
L241.6283 66.1136
" />
<path d="M241.6283 66.1136
L241.4378 66.1136
" />
<path d="M242.0569 66.5422
L242.0569 65.5422
" />
<path d="M242.0569 65.5422
L242.4378 65.5422
" />
<path d="M242.4378 65.5422
L242.5331 65.5898
" />
<path d="M242.5331 65.5898
L242.5807 65.6375
" />
<path d="M242.5807 65.6375
L242.6283 65.7327
" />
<path d="M242.6283 65.7327
L242.6283 65.8756
" />
<path d="M242.6283 65.8756
L242.5807 65.9708
" />
<path d="M242.5807 65.9708
L242.5331 66.0184
" />
<path d="M242.5331 66.0184
L242.4378 66.0660
" />
<path d="M242.4378 66.0660
L242.0569 66.0660
" />
<path d="M243.0569 66.5422
L243.0569 65.5422
" />
<path d="M243.7235 65.5422
L243.9140 65.5422
" />
<path d="M243.9140 65.5422
L244.0093 65.5898
" />
<path d="M244.0093 65.5898
L244.1045 65.6851
" />
<path d="M244.1045 65.6851
L244.1521 65.8756
" />
<path d="M244.1521 65.8756
L244.1521 66.2089
" />
<path d="M244.1521 66.2089
L244.1045 66.3994
" />
<path d="M244.1045 66.3994
L244.0093 66.4946
" />
<path d="M244.0093 66.4946
L243.9140 66.5422
" />
<path d="M243.9140 66.5422
L243.7235 66.5422
" />
<path d="M243.7235 66.5422
L243.6283 66.4946
" />
<path d="M243.6283 66.4946
L243.5331 66.3994
" />
<path d="M243.5331 66.3994
L243.4854 66.2089
" />
<path d="M243.4854 66.2089
L243.4854 65.8756
" />
<path d="M243.4854 65.8756
L243.5331 65.6851
" />
<path d="M243.5331 65.6851
L243.6283 65.5898
" />
<path d="M243.6283 65.5898
L243.7235 65.5422
" />
<path d="M245.0093 65.8756
L245.0093 66.5422
" />
<path d="M244.7712 65.4946
L244.5331 66.2089
" />
<path d="M244.5331 66.2089
L245.1521 66.2089
" />
</g><text x="256.5622" y="56.5150"
textLength="3.4476" font-size="1.3333" lengthAdjust="spacingAndGlyphs"
text-anchor="start" opacity="0" stroke-opacity="0">GND</text>
<g class="stroked-text"><desc>GND</desc>
<path d="M257.4557 55.4298
L257.3604 55.3822
" />
<path d="M257.3604 55.3822
L257.2176 55.3822
" />
<path d="M257.2176 55.3822
L257.0747 55.4298
" />
<path d="M257.0747 55.4298
L256.9795 55.5251
" />
<path d="M256.9795 55.5251
L256.9319 55.6203
" />
<path d="M256.9319 55.6203
L256.8843 55.8108
" />
<path d="M256.8843 55.8108
L256.8843 55.9536
" />
<path d="M256.8843 55.9536
L256.9319 56.1441
" />
<path d="M256.9319 56.1441
L256.9795 56.2394
" />
<path d="M256.9795 56.2394
L257.0747 56.3346
" />
<path d="M257.0747 56.3346
L257.2176 56.3822
" />
<path d="M257.2176 56.3822
L257.3128 56.3822
" />
<path d="M257.3128 56.3822
L257.4557 56.3346
" />
<path d="M257.4557 56.3346
L257.5033 56.2870
" />
<path d="M257.5033 56.2870
L257.5033 55.9536
" />
<path d="M257.5033 55.9536
L257.3128 55.9536
" />
<path d="M257.9319 56.3822
L257.9319 55.3822
" />
<path d="M257.9319 55.3822
L258.5033 56.3822
" />
<path d="M258.5033 56.3822
L258.5033 55.3822
" />
<path d="M258.9795 56.3822
L258.9795 55.3822
" />
<path d="M258.9795 55.3822
L259.2176 55.3822
" />
<path d="M259.2176 55.3822
L259.3604 55.4298
" />
<path d="M259.3604 55.4298
L259.4557 55.5251
" />
<path d="M259.4557 55.5251
L259.5033 55.6203
" />
<path d="M259.5033 55.6203
L259.5509 55.8108
" />
<path d="M259.5509 55.8108
L259.5509 55.9536
" />
<path d="M259.5509 55.9536
L259.5033 56.1441
" />
<path d="M259.5033 56.1441
L259.4557 56.2394
" />
<path d="M259.4557 56.2394
L259.3604 56.3346
" />
<path d="M259.3604 56.3346
L259.2176 56.3822
" />
<path d="M259.2176 56.3822
L258.9795 56.3822
" />
</g><text x="256.5622" y="66.6750"
textLength="3.4476" font-size="1.3333" lengthAdjust="spacingAndGlyphs"
text-anchor="start" opacity="0" stroke-opacity="0">GND</text>
<g class="stroked-text"><desc>GND</desc>
<path d="M257.4557 65.5898
L257.3604 65.5422
" />
<path d="M257.3604 65.5422
L257.2176 65.5422
" />
<path d="M257.2176 65.5422
L257.0747 65.5898
" />
<path d="M257.0747 65.5898
L256.9795 65.6851
" />
<path d="M256.9795 65.6851
L256.9319 65.7803
" />
<path d="M256.9319 65.7803
L256.8843 65.9708
" />
<path d="M256.8843 65.9708
L256.8843 66.1136
" />
<path d="M256.8843 66.1136
L256.9319 66.3041
" />
<path d="M256.9319 66.3041
L256.9795 66.3994
" />
<path d="M256.9795 66.3994
L257.0747 66.4946
" />
<path d="M257.0747 66.4946
L257.2176 66.5422
" />
<path d="M257.2176 66.5422
L257.3128 66.5422
" />
<path d="M257.3128 66.5422
L257.4557 66.4946
" />
<path d="M257.4557 66.4946
L257.5033 66.4470
" />
<path d="M257.5033 66.4470
L257.5033 66.1136
" />
<path d="M257.5033 66.1136
L257.3128 66.1136
" />
<path d="M257.9319 66.5422
L257.9319 65.5422
" />
<path d="M257.9319 65.5422
L258.5033 66.5422
" />
<path d="M258.5033 66.5422
L258.5033 65.5422
" />
<path d="M258.9795 66.5422
L258.9795 65.5422
" />
<path d="M258.9795 65.5422
L259.2176 65.5422
" />
<path d="M259.2176 65.5422
L259.3604 65.5898
" />
<path d="M259.3604 65.5898
L259.4557 65.6851
" />
<path d="M259.4557 65.6851
L259.5033 65.7803
" />
<path d="M259.5033 65.7803
L259.5509 65.9708
" />
<path d="M259.5509 65.9708
L259.5509 66.1136
" />
<path d="M259.5509 66.1136
L259.5033 66.3041
" />
<path d="M259.5033 66.3041
L259.4557 66.3994
" />
<path d="M259.4557 66.3994
L259.3604 66.4946
" />
<path d="M259.3604 66.4946
L259.2176 66.5422
" />
<path d="M259.2176 66.5422
L258.9795 66.5422
" />
</g><text x="240.6872" y="48.8950"
textLength="2.1143" font-size="1.3333" lengthAdjust="spacingAndGlyphs"
text-anchor="start" opacity="0" stroke-opacity="0">5v</text>
<g class="stroked-text"><desc>5v</desc>
<path d="M241.5331 47.7622
L241.0569 47.7622
" />
<path d="M241.0569 47.7622
L241.0093 48.2384
" />
<path d="M241.0093 48.2384
L241.0569 48.1908
" />
<path d="M241.0569 48.1908
L241.1521 48.1432
" />
<path d="M241.1521 48.1432
L241.3902 48.1432
" />
<path d="M241.3902 48.1432
L241.4854 48.1908
" />
<path d="M241.4854 48.1908
L241.5331 48.2384
" />
<path d="M241.5331 48.2384
L241.5807 48.3336
" />
<path d="M241.5807 48.3336
L241.5807 48.5717
" />
<path d="M241.5807 48.5717
L241.5331 48.6670
" />
<path d="M241.5331 48.6670
L241.4854 48.7146
" />
<path d="M241.4854 48.7146
L241.3902 48.7622
" />
<path d="M241.3902 48.7622
L241.1521 48.7622
" />
<path d="M241.1521 48.7622
L241.0569 48.7146
" />
<path d="M241.0569 48.7146
L241.0093 48.6670
" />
<path d="M241.9140 48.0956
L242.1521 48.7622
" />
<path d="M242.1521 48.7622
L242.3902 48.0956
" />
</g><text x="254.0222" y="51.4350"
textLength="5.8286" font-size="1.3333" lengthAdjust="spacingAndGlyphs"
text-anchor="start" opacity="0" stroke-opacity="0">GPIO16</text>
<g class="stroked-text"><desc>GPIO16</desc>
<path d="M254.9157 50.3498
L254.8204 50.3022
" />
<path d="M254.8204 50.3022
L254.6776 50.3022
" />
<path d="M254.6776 50.3022
L254.5347 50.3498
" />
<path d="M254.5347 50.3498
L254.4395 50.4451
" />
<path d="M254.4395 50.4451
L254.3919 50.5403
" />
<path d="M254.3919 50.5403
L254.3443 50.7308
" />
<path d="M254.3443 50.7308
L254.3443 50.8736
" />
<path d="M254.3443 50.8736
L254.3919 51.0641
" />
<path d="M254.3919 51.0641
L254.4395 51.1594
" />
<path d="M254.4395 51.1594
L254.5347 51.2546
" />
<path d="M254.5347 51.2546
L254.6776 51.3022
" />
<path d="M254.6776 51.3022
L254.7728 51.3022
" />
<path d="M254.7728 51.3022
L254.9157 51.2546
" />
<path d="M254.9157 51.2546
L254.9633 51.2070
" />
<path d="M254.9633 51.2070
L254.9633 50.8736
" />
<path d="M254.9633 50.8736
L254.7728 50.8736
" />
<path d="M255.3919 51.3022
L255.3919 50.3022
" />
<path d="M255.3919 50.3022
L255.7728 50.3022
" />
<path d="M255.7728 50.3022
L255.8681 50.3498
" />
<path d="M255.8681 50.3498
L255.9157 50.3975
" />
<path d="M255.9157 50.3975
L255.9633 50.4927
" />
<path d="M255.9633 50.4927
L255.9633 50.6356
" />
<path d="M255.9633 50.6356
L255.9157 50.7308
" />
<path d="M255.9157 50.7308
L255.8681 50.7784
" />
<path d="M255.8681 50.7784
L255.7728 50.8260
" />
<path d="M255.7728 50.8260
L255.3919 50.8260
" />
<path d="M256.3919 51.3022
L256.3919 50.3022
" />
<path d="M257.0585 50.3022
L257.2490 50.3022
" />
<path d="M257.2490 50.3022
L257.3443 50.3498
" />
<path d="M257.3443 50.3498
L257.4395 50.4451
" />
<path d="M257.4395 50.4451
L257.4871 50.6356
" />
<path d="M257.4871 50.6356
L257.4871 50.9689
" />
<path d="M257.4871 50.9689
L257.4395 51.1594
" />
<path d="M257.4395 51.1594
L257.3443 51.2546
" />
<path d="M257.3443 51.2546
L257.2490 51.3022
" />
<path d="M257.2490 51.3022
L257.0585 51.3022
" />
<path d="M257.0585 51.3022
L256.9633 51.2546
" />
<path d="M256.9633 51.2546
L256.8681 51.1594
" />
<path d="M256.8681 51.1594
L256.8204 50.9689
" />
<path d="M256.8204 50.9689
L256.8204 50.6356
" />
<path d="M256.8204 50.6356
L256.8681 50.4451
" />
<path d="M256.8681 50.4451
L256.9633 50.3498
" />
<path d="M256.9633 50.3498
L257.0585 50.3022
" />
<path d="M258.4395 51.3022
L257.8681 51.3022
" />
<path d="M258.1538 51.3022
L258.1538 50.3022
" />
<path d="M258.1538 50.3022
L258.0585 50.4451
" />
<path d="M258.0585 50.4451
L257.9633 50.5403
" />
<path d="M257.9633 50.5403
L257.8681 50.5879
" />
<path d="M259.2966 50.3022
L259.1062 50.3022
" />
<path d="M259.1062 50.3022
L259.0109 50.3498
" />
<path d="M259.0109 50.3498
L258.9633 50.3975
" />
<path d="M258.9633 50.3975
L258.8681 50.5403
" />
<path d="M258.8681 50.5403
L258.8204 50.7308
" />
<path d="M258.8204 50.7308
L258.8204 51.1117
" />
<path d="M258.8204 51.1117
L258.8681 51.2070
" />
<path d="M258.8681 51.2070
L258.9157 51.2546
" />
<path d="M258.9157 51.2546
L259.0109 51.3022
" />
<path d="M259.0109 51.3022
L259.2014 51.3022
" />
<path d="M259.2014 51.3022
L259.2966 51.2546
" />
<path d="M259.2966 51.2546
L259.3443 51.2070
" />
<path d="M259.3443 51.2070
L259.3919 51.1117
" />
<path d="M259.3919 51.1117
L259.3919 50.8736
" />
<path d="M259.3919 50.8736
L259.3443 50.7784
" />
<path d="M259.3443 50.7784
L259.2966 50.7308
" />
<path d="M259.2966 50.7308
L259.2014 50.6832
" />
<path d="M259.2014 50.6832
L259.0109 50.6832
" />
<path d="M259.0109 50.6832
L258.9157 50.7308
" />
<path d="M258.9157 50.7308
L258.8681 50.7784
" />
<path d="M258.8681 50.7784
L258.8204 50.8736
" />
</g><text x="240.6872" y="51.4350"
textLength="3.4476" font-size="1.3333" lengthAdjust="spacingAndGlyphs"
text-anchor="start" opacity="0" stroke-opacity="0">GND</text>
<g class="stroked-text"><desc>GND</desc>
<path d="M241.5807 50.3498
L241.4854 50.3022
" />
<path d="M241.4854 50.3022
L241.3426 50.3022
" />
<path d="M241.3426 50.3022
L241.1997 50.3498
" />
<path d="M241.1997 50.3498
L241.1045 50.4451
" />
<path d="M241.1045 50.4451
L241.0569 50.5403
" />
<path d="M241.0569 50.5403
L241.0093 50.7308
" />
<path d="M241.0093 50.7308
L241.0093 50.8736
" />
<path d="M241.0093 50.8736
L241.0569 51.0641
" />
<path d="M241.0569 51.0641
L241.1045 51.1594
" />
<path d="M241.1045 51.1594
L241.1997 51.2546
" />
<path d="M241.1997 51.2546
L241.3426 51.3022
" />
<path d="M241.3426 51.3022
L241.4378 51.3022
" />
<path d="M241.4378 51.3022
L241.5807 51.2546
" />
<path d="M241.5807 51.2546
L241.6283 51.2070
" />
<path d="M241.6283 51.2070
L241.6283 50.8736
" />
<path d="M241.6283 50.8736
L241.4378 50.8736
" />
<path d="M242.0569 51.3022
L242.0569 50.3022
" />
<path d="M242.0569 50.3022
L242.6283 51.3022
" />
<path d="M242.6283 51.3022
L242.6283 50.3022
" />
<path d="M243.1045 51.3022
L243.1045 50.3022
" />
<path d="M243.1045 50.3022
L243.3426 50.3022
" />
<path d="M243.3426 50.3022
L243.4854 50.3498
" />
<path d="M243.4854 50.3498
L243.5807 50.4451
" />
<path d="M243.5807 50.4451
L243.6283 50.5403
" />
<path d="M243.6283 50.5403
L243.6759 50.7308
" />
<path d="M243.6759 50.7308
L243.6759 50.8736
" />
<path d="M243.6759 50.8736
L243.6283 51.0641
" />
<path d="M243.6283 51.0641
L243.5807 51.1594
" />
<path d="M243.5807 51.1594
L243.4854 51.2546
" />
<path d="M243.4854 51.2546
L243.3426 51.3022
" />
<path d="M243.3426 51.3022
L243.1045 51.3022
" />
</g><text x="255.2922" y="64.1350"
textLength="4.8762" font-size="1.3333" lengthAdjust="spacingAndGlyphs"
text-anchor="start" opacity="0" stroke-opacity="0">GPIO1</text>
<g class="stroked-text"><desc>GPIO1</desc>
<path d="M256.1857 63.0498
L256.0904 63.0022
" />
<path d="M256.0904 63.0022
L255.9476 63.0022
" />
<path d="M255.9476 63.0022
L255.8047 63.0498
" />
<path d="M255.8047 63.0498
L255.7095 63.1451
" />
<path d="M255.7095 63.1451
L255.6619 63.2403
" />
<path d="M255.6619 63.2403
L255.6143 63.4308
" />
<path d="M255.6143 63.4308
L255.6143 63.5736
" />
<path d="M255.6143 63.5736
L255.6619 63.7641
" />
<path d="M255.6619 63.7641
L255.7095 63.8594
" />
<path d="M255.7095 63.8594
L255.8047 63.9546
" />
<path d="M255.8047 63.9546
L255.9476 64.0022
" />
<path d="M255.9476 64.0022
L256.0428 64.0022
" />
<path d="M256.0428 64.0022
L256.1857 63.9546
" />
<path d="M256.1857 63.9546
L256.2333 63.9070
" />
<path d="M256.2333 63.9070
L256.2333 63.5736
" />
<path d="M256.2333 63.5736
L256.0428 63.5736
" />
<path d="M256.6619 64.0022
L256.6619 63.0022
" />
<path d="M256.6619 63.0022
L257.0428 63.0022
" />
<path d="M257.0428 63.0022
L257.1381 63.0498
" />
<path d="M257.1381 63.0498
L257.1857 63.0975
" />
<path d="M257.1857 63.0975
L257.2333 63.1927
" />
<path d="M257.2333 63.1927
L257.2333 63.3356
" />
<path d="M257.2333 63.3356
L257.1857 63.4308
" />
<path d="M257.1857 63.4308
L257.1381 63.4784
" />
<path d="M257.1381 63.4784
L257.0428 63.5260
" />
<path d="M257.0428 63.5260
L256.6619 63.5260
" />
<path d="M257.6619 64.0022
L257.6619 63.0022
" />
<path d="M258.3285 63.0022
L258.5190 63.0022
" />
<path d="M258.5190 63.0022
L258.6143 63.0498
" />
<path d="M258.6143 63.0498
L258.7095 63.1451
" />
<path d="M258.7095 63.1451
L258.7571 63.3356
" />
<path d="M258.7571 63.3356
L258.7571 63.6689
" />
<path d="M258.7571 63.6689
L258.7095 63.8594
" />
<path d="M258.7095 63.8594
L258.6143 63.9546
" />
<path d="M258.6143 63.9546
L258.5190 64.0022
" />
<path d="M258.5190 64.0022
L258.3285 64.0022
" />
<path d="M258.3285 64.0022
L258.2333 63.9546
" />
<path d="M258.2333 63.9546
L258.1381 63.8594
" />
<path d="M258.1381 63.8594
L258.0904 63.6689
" />
<path d="M258.0904 63.6689
L258.0904 63.3356
" />
<path d="M258.0904 63.3356
L258.1381 63.1451
" />
<path d="M258.1381 63.1451
L258.2333 63.0498
" />
<path d="M258.2333 63.0498
L258.3285 63.0022
" />
<path d="M259.7095 64.0022
L259.1381 64.0022
" />
<path d="M259.4238 64.0022
L259.4238 63.0022
" />
<path d="M259.4238 63.0022
L259.3285 63.1451
" />
<path d="M259.3285 63.1451
L259.2333 63.2403
" />
<path d="M259.2333 63.2403
L259.1381 63.2879
" />
</g><text x="240.6872" y="64.1350"
textLength="4.8762" font-size="1.3333" lengthAdjust="spacingAndGlyphs"
text-anchor="start" opacity="0" stroke-opacity="0">GPIO2</text>
<g class="stroked-text"><desc>GPIO2</desc>
<path d="M241.5807 63.0498
L241.4854 63.0022
" />
<path d="M241.4854 63.0022
L241.3426 63.0022
" />
<path d="M241.3426 63.0022
L241.1997 63.0498
" />
<path d="M241.1997 63.0498
L241.1045 63.1451
" />
<path d="M241.1045 63.1451
L241.0569 63.2403
" />
<path d="M241.0569 63.2403
L241.0093 63.4308
" />
<path d="M241.0093 63.4308
L241.0093 63.5736
" />
<path d="M241.0093 63.5736
L241.0569 63.7641
" />
<path d="M241.0569 63.7641
L241.1045 63.8594
" />
<path d="M241.1045 63.8594
L241.1997 63.9546
" />
<path d="M241.1997 63.9546
L241.3426 64.0022
" />
<path d="M241.3426 64.0022
L241.4378 64.0022
" />
<path d="M241.4378 64.0022
L241.5807 63.9546
" />
<path d="M241.5807 63.9546
L241.6283 63.9070
" />
<path d="M241.6283 63.9070
L241.6283 63.5736
" />
<path d="M241.6283 63.5736
L241.4378 63.5736
" />
<path d="M242.0569 64.0022
L242.0569 63.0022
" />
<path d="M242.0569 63.0022
L242.4378 63.0022
" />
<path d="M242.4378 63.0022
L242.5331 63.0498
" />
<path d="M242.5331 63.0498
L242.5807 63.0975
" />
<path d="M242.5807 63.0975
L242.6283 63.1927
" />
<path d="M242.6283 63.1927
L242.6283 63.3356
" />
<path d="M242.6283 63.3356
L242.5807 63.4308
" />
<path d="M242.5807 63.4308
L242.5331 63.4784
" />
<path d="M242.5331 63.4784
L242.4378 63.5260
" />
<path d="M242.4378 63.5260
L242.0569 63.5260
" />
<path d="M243.0569 64.0022
L243.0569 63.0022
" />
<path d="M243.7235 63.0022
L243.9140 63.0022
" />
<path d="M243.9140 63.0022
L244.0093 63.0498
" />
<path d="M244.0093 63.0498
L244.1045 63.1451
" />
<path d="M244.1045 63.1451
L244.1521 63.3356
" />
<path d="M244.1521 63.3356
L244.1521 63.6689
" />
<path d="M244.1521 63.6689
L244.1045 63.8594
" />
<path d="M244.1045 63.8594
L244.0093 63.9546
" />
<path d="M244.0093 63.9546
L243.9140 64.0022
" />
<path d="M243.9140 64.0022
L243.7235 64.0022
" />
<path d="M243.7235 64.0022
L243.6283 63.9546
" />
<path d="M243.6283 63.9546
L243.5331 63.8594
" />
<path d="M243.5331 63.8594
L243.4854 63.6689
" />
<path d="M243.4854 63.6689
L243.4854 63.3356
" />
<path d="M243.4854 63.3356
L243.5331 63.1451
" />
<path d="M243.5331 63.1451
L243.6283 63.0498
" />
<path d="M243.6283 63.0498
L243.7235 63.0022
" />
<path d="M244.5331 63.0975
L244.5807 63.0498
" />
<path d="M244.5807 63.0498
L244.6759 63.0022
" />
<path d="M244.6759 63.0022
L244.9140 63.0022
" />
<path d="M244.9140 63.0022
L245.0093 63.0498
" />
<path d="M245.0093 63.0498
L245.0569 63.0975
" />
<path d="M245.0569 63.0975
L245.1045 63.1927
" />
<path d="M245.1045 63.1927
L245.1045 63.2879
" />
<path d="M245.1045 63.2879
L245.0569 63.4308
" />
<path d="M245.0569 63.4308
L244.4854 64.0022
" />
<path d="M244.4854 64.0022
L245.1045 64.0022
" />
</g><text x="240.6872" y="61.5950"
textLength="5.8286" font-size="1.3333" lengthAdjust="spacingAndGlyphs"
text-anchor="start" opacity="0" stroke-opacity="0">GPIO14</text>
<g class="stroked-text"><desc>GPIO14</desc>
<path d="M241.5807 60.5098
L241.4854 60.4622
" />
<path d="M241.4854 60.4622
L241.3426 60.4622
" />
<path d="M241.3426 60.4622
L241.1997 60.5098
" />
<path d="M241.1997 60.5098
L241.1045 60.6051
" />
<path d="M241.1045 60.6051
L241.0569 60.7003
" />
<path d="M241.0569 60.7003
L241.0093 60.8908
" />
<path d="M241.0093 60.8908
L241.0093 61.0336
" />
<path d="M241.0093 61.0336
L241.0569 61.2241
" />
<path d="M241.0569 61.2241
L241.1045 61.3194
" />
<path d="M241.1045 61.3194
L241.1997 61.4146
" />
<path d="M241.1997 61.4146
L241.3426 61.4622
" />
<path d="M241.3426 61.4622
L241.4378 61.4622
" />
<path d="M241.4378 61.4622
L241.5807 61.4146
" />
<path d="M241.5807 61.4146
L241.6283 61.3670
" />
<path d="M241.6283 61.3670
L241.6283 61.0336
" />
<path d="M241.6283 61.0336
L241.4378 61.0336
" />
<path d="M242.0569 61.4622
L242.0569 60.4622
" />
<path d="M242.0569 60.4622
L242.4378 60.4622
" />
<path d="M242.4378 60.4622
L242.5331 60.5098
" />
<path d="M242.5331 60.5098
L242.5807 60.5575
" />
<path d="M242.5807 60.5575
L242.6283 60.6527
" />
<path d="M242.6283 60.6527
L242.6283 60.7956
" />
<path d="M242.6283 60.7956
L242.5807 60.8908
" />
<path d="M242.5807 60.8908
L242.5331 60.9384
" />
<path d="M242.5331 60.9384
L242.4378 60.9860
" />
<path d="M242.4378 60.9860
L242.0569 60.9860
" />
<path d="M243.0569 61.4622
L243.0569 60.4622
" />
<path d="M243.7235 60.4622
L243.9140 60.4622
" />
<path d="M243.9140 60.4622
L244.0093 60.5098
" />
<path d="M244.0093 60.5098
L244.1045 60.6051
" />
<path d="M244.1045 60.6051
L244.1521 60.7956
" />
<path d="M244.1521 60.7956
L244.1521 61.1289
" />
<path d="M244.1521 61.1289
L244.1045 61.3194
" />
<path d="M244.1045 61.3194
L244.0093 61.4146
" />
<path d="M244.0093 61.4146
L243.9140 61.4622
" />
<path d="M243.9140 61.4622
L243.7235 61.4622
" />
<path d="M243.7235 61.4622
L243.6283 61.4146
" />
<path d="M243.6283 61.4146
L243.5331 61.3194
" />
<path d="M243.5331 61.3194
L243.4854 61.1289
" />
<path d="M243.4854 61.1289
L243.4854 60.7956
" />
<path d="M243.4854 60.7956
L243.5331 60.6051
" />
<path d="M243.5331 60.6051
L243.6283 60.5098
" />
<path d="M243.6283 60.5098
L243.7235 60.4622
" />
<path d="M245.1045 61.4622
L244.5331 61.4622
" />
<path d="M244.8188 61.4622
L244.8188 60.4622
" />
<path d="M244.8188 60.4622
L244.7235 60.6051
" />
<path d="M244.7235 60.6051
L244.6283 60.7003
" />
<path d="M244.6283 60.7003
L244.5331 60.7479
" />
<path d="M245.9616 60.7956
L245.9616 61.4622
" />
<path d="M245.7235 60.4146
L245.4854 61.1289
" />
<path d="M245.4854 61.1289
L246.1045 61.1289
" />
</g><text x="240.6872" y="56.5150"
textLength="5.8286" font-size="1.3333" lengthAdjust="spacingAndGlyphs"
text-anchor="start" opacity="0" stroke-opacity="0">GPIO13</text>
<g class="stroked-text"><desc>GPIO13</desc>
<path d="M241.5807 55.4298
L241.4854 55.3822
" />
<path d="M241.4854 55.3822
L241.3426 55.3822
" />
<path d="M241.3426 55.3822
L241.1997 55.4298
" />
<path d="M241.1997 55.4298
L241.1045 55.5251
" />
<path d="M241.1045 55.5251
L241.0569 55.6203
" />
<path d="M241.0569 55.6203
L241.0093 55.8108
" />
<path d="M241.0093 55.8108
L241.0093 55.9536
" />
<path d="M241.0093 55.9536
L241.0569 56.1441
" />
<path d="M241.0569 56.1441
L241.1045 56.2394
" />
<path d="M241.1045 56.2394
L241.1997 56.3346
" />
<path d="M241.1997 56.3346
L241.3426 56.3822
" />
<path d="M241.3426 56.3822
L241.4378 56.3822
" />
<path d="M241.4378 56.3822
L241.5807 56.3346
" />
<path d="M241.5807 56.3346
L241.6283 56.2870
" />
<path d="M241.6283 56.2870
L241.6283 55.9536
" />
<path d="M241.6283 55.9536
L241.4378 55.9536
" />
<path d="M242.0569 56.3822
L242.0569 55.3822
" />
<path d="M242.0569 55.3822
L242.4378 55.3822
" />
<path d="M242.4378 55.3822
L242.5331 55.4298
" />
<path d="M242.5331 55.4298
L242.5807 55.4775
" />
<path d="M242.5807 55.4775
L242.6283 55.5727
" />
<path d="M242.6283 55.5727
L242.6283 55.7156
" />
<path d="M242.6283 55.7156
L242.5807 55.8108
" />
<path d="M242.5807 55.8108
L242.5331 55.8584
" />
<path d="M242.5331 55.8584
L242.4378 55.9060
" />
<path d="M242.4378 55.9060
L242.0569 55.9060
" />
<path d="M243.0569 56.3822
L243.0569 55.3822
" />
<path d="M243.7235 55.3822
L243.9140 55.3822
" />
<path d="M243.9140 55.3822
L244.0093 55.4298
" />
<path d="M244.0093 55.4298
L244.1045 55.5251
" />
<path d="M244.1045 55.5251
L244.1521 55.7156
" />
<path d="M244.1521 55.7156
L244.1521 56.0489
" />
<path d="M244.1521 56.0489
L244.1045 56.2394
" />
<path d="M244.1045 56.2394
L244.0093 56.3346
" />
<path d="M244.0093 56.3346
L243.9140 56.3822
" />
<path d="M243.9140 56.3822
L243.7235 56.3822
" />
<path d="M243.7235 56.3822
L243.6283 56.3346
" />
<path d="M243.6283 56.3346
L243.5331 56.2394
" />
<path d="M243.5331 56.2394
L243.4854 56.0489
" />
<path d="M243.4854 56.0489
L243.4854 55.7156
" />
<path d="M243.4854 55.7156
L243.5331 55.5251
" />
<path d="M243.5331 55.5251
L243.6283 55.4298
" />
<path d="M243.6283 55.4298
L243.7235 55.3822
" />
<path d="M245.1045 56.3822
L244.5331 56.3822
" />
<path d="M244.8188 56.3822
L244.8188 55.3822
" />
<path d="M244.8188 55.3822
L244.7235 55.5251
" />
<path d="M244.7235 55.5251
L244.6283 55.6203
" />
<path d="M244.6283 55.6203
L244.5331 55.6679
" />
<path d="M245.4378 55.3822
L246.0569 55.3822
" />
<path d="M246.0569 55.3822
L245.7235 55.7632
" />
<path d="M245.7235 55.7632
L245.8664 55.7632
" />
<path d="M245.8664 55.7632
L245.9616 55.8108
" />
<path d="M245.9616 55.8108
L246.0093 55.8584
" />
<path d="M246.0093 55.8584
L246.0569 55.9536
" />
<path d="M246.0569 55.9536
L246.0569 56.1917
" />
<path d="M246.0569 56.1917
L246.0093 56.2870
" />
<path d="M246.0093 56.2870
L245.9616 56.3346
" />
<path d="M245.9616 56.3346
L245.8664 56.3822
" />
<path d="M245.8664 56.3822
L245.5807 56.3822
" />
<path d="M245.5807 56.3822
L245.4854 56.3346
" />
<path d="M245.4854 56.3346
L245.4378 56.2870
" />
</g><text x="256.5622" y="48.8950"
textLength="3.5429" font-size="1.3333" lengthAdjust="spacingAndGlyphs"
text-anchor="start" opacity="0" stroke-opacity="0">3.3v</text>
<g class="stroked-text"><desc>3.3v</desc>
<path d="M256.8366 47.7622
L257.4557 47.7622
" />
<path d="M257.4557 47.7622
L257.1223 48.1432
" />
<path d="M257.1223 48.1432
L257.2652 48.1432
" />
<path d="M257.2652 48.1432
L257.3604 48.1908
" />
<path d="M257.3604 48.1908
L257.4081 48.2384
" />
<path d="M257.4081 48.2384
L257.4557 48.3336
" />
<path d="M257.4557 48.3336
L257.4557 48.5717
" />
<path d="M257.4557 48.5717
L257.4081 48.6670
" />
<path d="M257.4081 48.6670
L257.3604 48.7146
" />
<path d="M257.3604 48.7146
L257.2652 48.7622
" />
<path d="M257.2652 48.7622
L256.9795 48.7622
" />
<path d="M256.9795 48.7622
L256.8843 48.7146
" />
<path d="M256.8843 48.7146
L256.8366 48.6670
" />
<path d="M257.8843 48.6670
L257.9319 48.7146
" />
<path d="M257.9319 48.7146
L257.8843 48.7622
" />
<path d="M257.8843 48.7622
L257.8366 48.7146
" />
<path d="M257.8366 48.7146
L257.8843 48.6670
" />
<path d="M257.8843 48.6670
L257.8843 48.7622
" />
<path d="M258.2652 47.7622
L258.8843 47.7622
" />
<path d="M258.8843 47.7622
L258.5509 48.1432
" />
<path d="M258.5509 48.1432
L258.6938 48.1432
" />
<path d="M258.6938 48.1432
L258.7890 48.1908
" />
<path d="M258.7890 48.1908
L258.8366 48.2384
" />
<path d="M258.8366 48.2384
L258.8843 48.3336
" />
<path d="M258.8843 48.3336
L258.8843 48.5717
" />
<path d="M258.8843 48.5717
L258.8366 48.6670
" />
<path d="M258.8366 48.6670
L258.7890 48.7146
" />
<path d="M258.7890 48.7146
L258.6938 48.7622
" />
<path d="M258.6938 48.7622
L258.4081 48.7622
" />
<path d="M258.4081 48.7622
L258.3128 48.7146
" />
<path d="M258.3128 48.7146
L258.2652 48.6670
" />
<path d="M259.2176 48.0956
L259.4557 48.7622
" />
<path d="M259.4557 48.7622
L259.6938 48.0956
" />
</g><text x="255.2922" y="61.5950"
textLength="4.8762" font-size="1.3333" lengthAdjust="spacingAndGlyphs"
text-anchor="start" opacity="0" stroke-opacity="0">GPIO3</text>
<g class="stroked-text"><desc>GPIO3</desc>
<path d="M256.1857 60.5098
L256.0904 60.4622
" />
<path d="M256.0904 60.4622
L255.9476 60.4622
" />
<path d="M255.9476 60.4622
L255.8047 60.5098
" />
<path d="M255.8047 60.5098
L255.7095 60.6051
" />
<path d="M255.7095 60.6051
L255.6619 60.7003
" />
<path d="M255.6619 60.7003
L255.6143 60.8908
" />
<path d="M255.6143 60.8908
L255.6143 61.0336
" />
<path d="M255.6143 61.0336
L255.6619 61.2241
" />
<path d="M255.6619 61.2241
L255.7095 61.3194
" />
<path d="M255.7095 61.3194
L255.8047 61.4146
" />
<path d="M255.8047 61.4146
L255.9476 61.4622
" />
<path d="M255.9476 61.4622
L256.0428 61.4622
" />
<path d="M256.0428 61.4622
L256.1857 61.4146
" />
<path d="M256.1857 61.4146
L256.2333 61.3670
" />
<path d="M256.2333 61.3670
L256.2333 61.0336
" />
<path d="M256.2333 61.0336
L256.0428 61.0336
" />
<path d="M256.6619 61.4622
L256.6619 60.4622
" />
<path d="M256.6619 60.4622
L257.0428 60.4622
" />
<path d="M257.0428 60.4622
L257.1381 60.5098
" />
<path d="M257.1381 60.5098
L257.1857 60.5575
" />
<path d="M257.1857 60.5575
L257.2333 60.6527
" />
<path d="M257.2333 60.6527
L257.2333 60.7956
" />
<path d="M257.2333 60.7956
L257.1857 60.8908
" />
<path d="M257.1857 60.8908
L257.1381 60.9384
" />
<path d="M257.1381 60.9384
L257.0428 60.9860
" />
<path d="M257.0428 60.9860
L256.6619 60.9860
" />
<path d="M257.6619 61.4622
L257.6619 60.4622
" />
<path d="M258.3285 60.4622
L258.5190 60.4622
" />
<path d="M258.5190 60.4622
L258.6143 60.5098
" />
<path d="M258.6143 60.5098
L258.7095 60.6051
" />
<path d="M258.7095 60.6051
L258.7571 60.7956
" />
<path d="M258.7571 60.7956
L258.7571 61.1289
" />
<path d="M258.7571 61.1289
L258.7095 61.3194
" />
<path d="M258.7095 61.3194
L258.6143 61.4146
" />
<path d="M258.6143 61.4146
L258.5190 61.4622
" />
<path d="M258.5190 61.4622
L258.3285 61.4622
" />
<path d="M258.3285 61.4622
L258.2333 61.4146
" />
<path d="M258.2333 61.4146
L258.1381 61.3194
" />
<path d="M258.1381 61.3194
L258.0904 61.1289
" />
<path d="M258.0904 61.1289
L258.0904 60.7956
" />
<path d="M258.0904 60.7956
L258.1381 60.6051
" />
<path d="M258.1381 60.6051
L258.2333 60.5098
" />
<path d="M258.2333 60.5098
L258.3285 60.4622
" />
<path d="M259.0904 60.4622
L259.7095 60.4622
" />
<path d="M259.7095 60.4622
L259.3762 60.8432
" />
<path d="M259.3762 60.8432
L259.5190 60.8432
" />
<path d="M259.5190 60.8432
L259.6143 60.8908
" />
<path d="M259.6143 60.8908
L259.6619 60.9384
" />
<path d="M259.6619 60.9384
L259.7095 61.0336
" />
<path d="M259.7095 61.0336
L259.7095 61.2717
" />
<path d="M259.7095 61.2717
L259.6619 61.3670
" />
<path d="M259.6619 61.3670
L259.6143 61.4146
" />
<path d="M259.6143 61.4146
L259.5190 61.4622
" />
<path d="M259.5190 61.4622
L259.2333 61.4622
" />
<path d="M259.2333 61.4622
L259.1381 61.4146
" />
<path d="M259.1381 61.4146
L259.0904 61.3670
" />
</g></g>
<g style="fill:#000000; fill-opacity:1.0000; stroke:none;">
<circle cx="247.2522" cy="81.5000" r="0.5000" /> 
</g>
<g style="fill:#000000; fill-opacity:1.0000; stroke:none;">
<circle cx="243.7522" cy="81.5000" r="0.5000" /> 
</g>
<g style="fill:#000000; fill-opacity:1.0000; stroke:none;">
<circle cx="261.2522" cy="81.5000" r="0.5000" /> 
</g>
<g style="fill:#000000; fill-opacity:1.0000; stroke:none;">
<circle cx="257.7522" cy="81.5000" r="0.5000" /> 
</g>
<g style="fill:#000000; fill-opacity:1.0000; stroke:none;">
<circle cx="261.4422" cy="48.2600" r="0.4000" /> 
</g>
<g style="fill:#000000; fill-opacity:1.0000; stroke:none;">
<circle cx="261.4422" cy="50.8000" r="0.4000" /> 
</g>
<g style="fill:#000000; fill-opacity:1.0000; stroke:none;">
<circle cx="261.4422" cy="53.3400" r="0.4000" /> 
</g>
<g style="fill:#000000; fill-opacity:1.0000; stroke:none;">
<circle cx="261.4422" cy="55.8800" r="0.4000" /> 
</g>
<g style="fill:#000000; fill-opacity:1.0000; stroke:none;">
<circle cx="261.4422" cy="58.4200" r="0.4000" /> 
</g>
<g style="fill:#000000; fill-opacity:1.0000; stroke:none;">
<circle cx="261.4422" cy="60.9600" r="0.4000" /> 
</g>
<g style="fill:#000000; fill-opacity:1.0000; stroke:none;">
<circle cx="261.4422" cy="63.5000" r="0.4000" /> 
</g>
<g style="fill:#000000; fill-opacity:1.0000; stroke:none;">
<circle cx="261.4422" cy="66.0400" r="0.4000" /> 
</g>
<g style="fill:#000000; fill-opacity:1.0000; stroke:none;">
<circle cx="238.5822" cy="48.2600" r="0.4000" /> 
</g>
<g style="fill:#000000; fill-opacity:1.0000; stroke:none;">
<circle cx="238.5822" cy="50.8000" r="0.4000" /> 
</g>
<g style="fill:#000000; fill-opacity:1.0000; stroke:none;">
<circle cx="238.5822" cy="53.3400" r="0.4000" /> 
</g>
<g style="fill:#000000; fill-opacity:1.0000; stroke:none;">
<circle cx="238.5822" cy="55.8800" r="0.4000" /> 
</g>
<g style="fill:#000000; fill-opacity:1.0000; stroke:none;">
<circle cx="238.5822" cy="58.4200" r="0.4000" /> 
</g>
<g style="fill:#000000; fill-opacity:1.0000; stroke:none;">
<circle cx="238.5822" cy="60.9600" r="0.4000" /> 
</g>
<g style="fill:#000000; fill-opacity:1.0000; stroke:none;">
<circle cx="238.5822" cy="63.5000" r="0.4000" /> 
</g>
<g style="fill:#000000; fill-opacity:1.0000; stroke:none;">
<circle cx="238.5822" cy="66.0400" r="0.4000" /> 
</g>
<g style="fill:#000000; fill-opacity:1.0000; stroke:none;">
<circle cx="239.2522" cy="74.7500" r="0.5000" /> 
</g>
<g style="fill:#000000; fill-opacity:1.0000; stroke:none;">
<circle cx="239.2522" cy="71.2500" r="0.5000" /> 
</g>
<g style="fill:#000000; fill-opacity:1.0000; stroke:none;">
<circle cx="259.5022" cy="71.2500" r="0.5000" /> 
</g>
<g style="fill:#000000; fill-opacity:1.0000; stroke:none;">
<circle cx="259.5022" cy="74.7500" r="0.5000" /> 
</g>
<g style="fill:#000000; fill-opacity:1.0000; stroke:none;">
<circle cx="254.2522" cy="81.5000" r="0.5000" /> 
</g>
<g style="fill:#000000; fill-opacity:1.0000; stroke:none;">
<circle cx="250.7522" cy="81.5000" r="0.5000" /> 
</g>
<g style="fill:#FFFFFF; fill-opacity:1.0000; stroke:none;">
<circle cx="247.2522" cy="81.5000" r="0.5000" /> 
</g>
<g style="fill:#FFFFFF; fill-opacity:1.0000; stroke:none;">
<circle cx="243.7522" cy="81.5000" r="0.5000" /> 
</g>
<g style="fill:#FFFFFF; fill-opacity:1.0000; stroke:none;">
<circle cx="261.2522" cy="81.5000" r="0.5000" /> 
</g>
<g style="fill:#FFFFFF; fill-opacity:1.0000; stroke:none;">
<circle cx="257.7522" cy="81.5000" r="0.5000" /> 
</g>
<g style="fill:#FFFFFF; fill-opacity:1.0000; stroke:none;">
<circle cx="261.4422" cy="48.2600" r="0.4000" /> 
</g>
<g style="fill:#FFFFFF; fill-opacity:1.0000; stroke:none;">
<circle cx="261.4422" cy="50.8000" r="0.4000" /> 
</g>
<g style="fill:#FFFFFF; fill-opacity:1.0000; stroke:none;">
<circle cx="261.4422" cy="53.3400" r="0.4000" /> 
</g>
<g style="fill:#FFFFFF; fill-opacity:1.0000; stroke:none;">
<circle cx="261.4422" cy="55.8800" r="0.4000" /> 
</g>
<g style="fill:#FFFFFF; fill-opacity:1.0000; stroke:none;">
<circle cx="261.4422" cy="58.4200" r="0.4000" /> 
</g>
<g style="fill:#FFFFFF; fill-opacity:1.0000; stroke:none;">
<circle cx="261.4422" cy="60.9600" r="0.4000" /> 
</g>
<g style="fill:#FFFFFF; fill-opacity:1.0000; stroke:none;">
<circle cx="261.4422" cy="63.5000" r="0.4000" /> 
</g>
<g style="fill:#FFFFFF; fill-opacity:1.0000; stroke:none;">
<circle cx="261.4422" cy="66.0400" r="0.4000" /> 
</g>
<g style="fill:#FFFFFF; fill-opacity:1.0000; stroke:none;">
<circle cx="238.5822" cy="48.2600" r="0.4000" /> 
</g>
<g style="fill:#FFFFFF; fill-opacity:1.0000; stroke:none;">
<circle cx="238.5822" cy="50.8000" r="0.4000" /> 
</g>
<g style="fill:#FFFFFF; fill-opacity:1.0000; stroke:none;">
<circle cx="238.5822" cy="53.3400" r="0.4000" /> 
</g>
<g style="fill:#FFFFFF; fill-opacity:1.0000; stroke:none;">
<circle cx="238.5822" cy="55.8800" r="0.4000" /> 
</g>
<g style="fill:#FFFFFF; fill-opacity:1.0000; stroke:none;">
<circle cx="238.5822" cy="58.4200" r="0.4000" /> 
</g>
<g style="fill:#FFFFFF; fill-opacity:1.0000; stroke:none;">
<circle cx="238.5822" cy="60.9600" r="0.4000" /> 
</g>
<g style="fill:#FFFFFF; fill-opacity:1.0000; stroke:none;">
<circle cx="238.5822" cy="63.5000" r="0.4000" /> 
</g>
<g style="fill:#FFFFFF; fill-opacity:1.0000; stroke:none;">
<circle cx="238.5822" cy="66.0400" r="0.4000" /> 
</g>
<g style="fill:#FFFFFF; fill-opacity:1.0000; stroke:none;">
<circle cx="239.2522" cy="74.7500" r="0.5000" /> 
</g>
<g style="fill:#FFFFFF; fill-opacity:1.0000; stroke:none;">
<circle cx="239.2522" cy="71.2500" r="0.5000" /> 
</g>
<g style="fill:#FFFFFF; fill-opacity:1.0000; stroke:none;">
<circle cx="259.5022" cy="71.2500" r="0.5000" /> 
</g>
<g style="fill:#FFFFFF; fill-opacity:1.0000; stroke:none;">
<circle cx="259.5022" cy="74.7500" r="0.5000" /> 
</g>
<g style="fill:#FFFFFF; fill-opacity:1.0000; stroke:none;">
<circle cx="254.2522" cy="81.5000" r="0.5000" /> 
</g>
<g style="fill:#FFFFFF; fill-opacity:1.0000; stroke:none;">
<circle cx="250.7522" cy="81.5000" r="0.5000" /> 
</g> 
</svg>
